<mxfile host="Electron" modified="2023-11-17T06:20:48.317Z" agent="Mozilla/5.0 (Windows NT 10.0; Win64; x64) AppleWebKit/537.36 (KHTML, like Gecko) draw.io/21.2.1 Chrome/112.0.5615.87 Electron/24.1.2 Safari/537.36" etag="QCroRvMUYBNNUBvDyVrV" version="21.2.1" type="device">
  <diagram name="Page-1" id="74e2e168-ea6b-b213-b513-2b3c1d86103e">
    <mxGraphModel dx="1098" dy="800" grid="1" gridSize="10" guides="1" tooltips="1" connect="1" arrows="1" fold="1" page="1" pageScale="1" pageWidth="1100" pageHeight="850" background="none" math="0" shadow="0">
      <root>
        <mxCell id="0" />
        <mxCell id="1" parent="0" />
        <mxCell id="zyji_GZpy6BMfyCcap8W-9" value="rpc" style="edgeStyle=none;curved=1;rounded=0;orthogonalLoop=1;jettySize=auto;html=1;entryX=0;entryY=0.5;entryDx=0;entryDy=0;fontSize=12;startSize=8;endSize=8;exitX=1;exitY=0.5;exitDx=0;exitDy=0;endArrow=classicThin;endFill=1;" edge="1" parent="1" source="zyji_GZpy6BMfyCcap8W-1" target="zyji_GZpy6BMfyCcap8W-8">
          <mxGeometry relative="1" as="geometry" />
        </mxCell>
        <mxCell id="zyji_GZpy6BMfyCcap8W-10" value="rpc" style="edgeStyle=none;curved=1;rounded=0;orthogonalLoop=1;jettySize=auto;html=1;entryX=0;entryY=0.5;entryDx=0;entryDy=0;fontSize=12;startSize=8;endSize=8;exitX=1;exitY=0.5;exitDx=0;exitDy=0;endArrow=classicThin;endFill=1;" edge="1" parent="1" source="zyji_GZpy6BMfyCcap8W-1" target="zyji_GZpy6BMfyCcap8W-4">
          <mxGeometry relative="1" as="geometry" />
        </mxCell>
        <mxCell id="zyji_GZpy6BMfyCcap8W-11" value="rpc" style="edgeStyle=none;curved=1;rounded=0;orthogonalLoop=1;jettySize=auto;html=1;fontSize=12;startSize=8;endSize=8;entryX=0;entryY=0.5;entryDx=0;entryDy=0;exitX=1;exitY=0.5;exitDx=0;exitDy=0;endArrow=classicThin;endFill=1;" edge="1" parent="1" source="zyji_GZpy6BMfyCcap8W-1" target="zyji_GZpy6BMfyCcap8W-5">
          <mxGeometry relative="1" as="geometry" />
        </mxCell>
        <mxCell id="zyji_GZpy6BMfyCcap8W-1" value="gate" style="ellipse;whiteSpace=wrap;html=1;fontSize=16;" vertex="1" parent="1">
          <mxGeometry x="480" y="120" width="120" height="80" as="geometry" />
        </mxCell>
        <mxCell id="zyji_GZpy6BMfyCcap8W-16" value="rpc" style="edgeStyle=none;curved=1;rounded=0;orthogonalLoop=1;jettySize=auto;html=1;entryX=0.5;entryY=1;entryDx=0;entryDy=0;fontSize=12;startSize=8;endSize=8;exitX=1;exitY=0.5;exitDx=0;exitDy=0;endArrow=classicThin;endFill=1;startArrow=classicThin;startFill=1;" edge="1" parent="1" source="zyji_GZpy6BMfyCcap8W-5" target="zyji_GZpy6BMfyCcap8W-8">
          <mxGeometry relative="1" as="geometry" />
        </mxCell>
        <mxCell id="zyji_GZpy6BMfyCcap8W-12" value="rpc" style="edgeStyle=none;curved=1;rounded=0;orthogonalLoop=1;jettySize=auto;html=1;entryX=0.5;entryY=1;entryDx=0;entryDy=0;fontSize=12;startSize=8;endSize=8;exitX=0.5;exitY=0;exitDx=0;exitDy=0;endArrow=classicThin;endFill=1;startArrow=classicThin;startFill=1;" edge="1" parent="1" source="zyji_GZpy6BMfyCcap8W-7" target="zyji_GZpy6BMfyCcap8W-1">
          <mxGeometry relative="1" as="geometry" />
        </mxCell>
        <mxCell id="zyji_GZpy6BMfyCcap8W-13" style="edgeStyle=none;curved=1;rounded=0;orthogonalLoop=1;jettySize=auto;html=1;entryX=0;entryY=0.5;entryDx=0;entryDy=0;fontSize=12;startSize=8;endSize=8;exitX=0.5;exitY=0;exitDx=0;exitDy=0;endArrow=classicThin;endFill=1;startArrow=classicThin;startFill=1;" edge="1" parent="1" source="zyji_GZpy6BMfyCcap8W-7" target="zyji_GZpy6BMfyCcap8W-5">
          <mxGeometry relative="1" as="geometry" />
        </mxCell>
        <mxCell id="zyji_GZpy6BMfyCcap8W-14" value="rpc" style="edgeStyle=none;curved=1;rounded=0;orthogonalLoop=1;jettySize=auto;html=1;entryX=0;entryY=0.5;entryDx=0;entryDy=0;fontSize=12;startSize=8;endSize=8;exitX=0.5;exitY=0;exitDx=0;exitDy=0;endArrow=classicThin;endFill=1;startArrow=classicThin;startFill=1;" edge="1" parent="1" source="zyji_GZpy6BMfyCcap8W-7" target="zyji_GZpy6BMfyCcap8W-4">
          <mxGeometry relative="1" as="geometry" />
        </mxCell>
        <mxCell id="zyji_GZpy6BMfyCcap8W-7" value="login" style="ellipse;whiteSpace=wrap;html=1;fontSize=16;" vertex="1" parent="1">
          <mxGeometry x="480" y="440" width="120" height="80" as="geometry" />
        </mxCell>
        <mxCell id="zyji_GZpy6BMfyCcap8W-15" value="rpc" style="edgeStyle=none;curved=1;rounded=0;orthogonalLoop=1;jettySize=auto;html=1;entryX=1;entryY=0.5;entryDx=0;entryDy=0;fontSize=12;startSize=8;endSize=8;exitX=0.5;exitY=1;exitDx=0;exitDy=0;endArrow=classicThin;endFill=1;startArrow=classicThin;startFill=1;" edge="1" parent="1" source="zyji_GZpy6BMfyCcap8W-8" target="zyji_GZpy6BMfyCcap8W-4">
          <mxGeometry relative="1" as="geometry" />
        </mxCell>
        <mxCell id="zyji_GZpy6BMfyCcap8W-8" value="chat" style="ellipse;whiteSpace=wrap;html=1;fontSize=16;" vertex="1" parent="1">
          <mxGeometry x="840" y="120" width="120" height="80" as="geometry" />
        </mxCell>
        <mxCell id="zyji_GZpy6BMfyCcap8W-18" style="edgeStyle=none;curved=1;rounded=0;orthogonalLoop=1;jettySize=auto;html=1;entryX=0;entryY=0.5;entryDx=0;entryDy=0;fontSize=12;startSize=8;endSize=8;exitX=1;exitY=0.5;exitDx=0;exitDy=0;startArrow=none;startFill=0;endArrow=classic;endFill=1;dashed=1;" edge="1" parent="1" source="zyji_GZpy6BMfyCcap8W-17" target="zyji_GZpy6BMfyCcap8W-7">
          <mxGeometry relative="1" as="geometry" />
        </mxCell>
        <mxCell id="zyji_GZpy6BMfyCcap8W-22" value="http" style="edgeLabel;html=1;align=center;verticalAlign=middle;resizable=0;points=[];fontSize=16;" vertex="1" connectable="0" parent="zyji_GZpy6BMfyCcap8W-18">
          <mxGeometry x="-0.2602" y="-2" relative="1" as="geometry">
            <mxPoint x="-2" y="-3" as="offset" />
          </mxGeometry>
        </mxCell>
        <mxCell id="zyji_GZpy6BMfyCcap8W-19" style="edgeStyle=none;curved=1;rounded=0;orthogonalLoop=1;jettySize=auto;html=1;entryX=0;entryY=0.5;entryDx=0;entryDy=0;fontSize=12;startSize=8;endSize=8;exitX=1;exitY=0.5;exitDx=0;exitDy=0;endArrow=classic;endFill=1;" edge="1" parent="1" source="zyji_GZpy6BMfyCcap8W-17" target="zyji_GZpy6BMfyCcap8W-1">
          <mxGeometry relative="1" as="geometry" />
        </mxCell>
        <mxCell id="zyji_GZpy6BMfyCcap8W-23" value="ws" style="edgeLabel;html=1;align=center;verticalAlign=middle;resizable=0;points=[];fontSize=16;" vertex="1" connectable="0" parent="zyji_GZpy6BMfyCcap8W-19">
          <mxGeometry x="-0.3422" y="1" relative="1" as="geometry">
            <mxPoint as="offset" />
          </mxGeometry>
        </mxCell>
        <mxCell id="zyji_GZpy6BMfyCcap8W-17" value="client" style="rounded=1;whiteSpace=wrap;html=1;fontSize=16;" vertex="1" parent="1">
          <mxGeometry x="200" y="280" width="120" height="60" as="geometry" />
        </mxCell>
        <mxCell id="zyji_GZpy6BMfyCcap8W-21" value="Servers" style="swimlane;whiteSpace=wrap;html=1;fontSize=16;" vertex="1" parent="1">
          <mxGeometry x="400" y="80" width="600" height="480" as="geometry" />
        </mxCell>
        <mxCell id="zyji_GZpy6BMfyCcap8W-5" value="game" style="ellipse;whiteSpace=wrap;html=1;fontSize=16;" vertex="1" parent="zyji_GZpy6BMfyCcap8W-21">
          <mxGeometry x="280" y="260" width="120" height="80" as="geometry" />
        </mxCell>
        <mxCell id="zyji_GZpy6BMfyCcap8W-4" value="game" style="ellipse;whiteSpace=wrap;html=1;fontSize=16;" vertex="1" parent="zyji_GZpy6BMfyCcap8W-21">
          <mxGeometry x="280" y="140" width="120" height="80" as="geometry" />
        </mxCell>
      </root>
    </mxGraphModel>
  </diagram>
</mxfile>
